<svg xmlns="http://www.w3.org/2000/svg" width="375.912" height="201.856" viewBox="0 0 375.912 201.856">
  <g id="Logo_INR_FR" transform="translate(-106 -324.148)">
    <path id="Tracé_117" data-name="Tracé 117" d="M18.178,156.654l.032.1a7.553,7.553,0,0,1-2.284,5.937,9.169,9.169,0,0,1-6.519,2.2,9.048,9.048,0,0,1-6.8-2.689A9.532,9.532,0,0,1,0,155.269v-4.6a9.693,9.693,0,0,1,2.547-6.924,8.675,8.675,0,0,1,6.621-2.706,9.612,9.612,0,0,1,6.718,2.2,7.542,7.542,0,0,1,2.355,6.01l-.031.1H13.689a5.071,5.071,0,0,0-1.1-3.51,4.388,4.388,0,0,0-3.423-1.218,3.877,3.877,0,0,0-3.31,1.694,7.177,7.177,0,0,0-1.226,4.318v4.627a6.987,6.987,0,0,0,1.289,4.35A4.152,4.152,0,0,0,9.407,161.3a4.108,4.108,0,0,0,3.224-1.169,5.093,5.093,0,0,0,1.042-3.479Z" transform="translate(106 322)" fill="#00668c"/>
    <path id="Tracé_118" data-name="Tracé 118" d="M40.256,164.55H35.624v-9.631H26.169v9.631H21.521V141.373h4.648v9.965h9.455v-9.965h4.632Z" transform="translate(106 322)" fill="#00668c"/>
    <path id="Tracé_119" data-name="Tracé 119" d="M57.034,159.552H48.9l-1.576,5h-4.7L50.6,141.373h4.759l7.944,23.177h-4.7Zm-6.988-3.646h5.842l-2.865-9.1h-.1Z" transform="translate(106 322)" fill="#00668c"/>
    <path id="Tracé_120" data-name="Tracé 120" d="M70.119,155.285v9.265H65.471V141.373H74.21a9.607,9.607,0,0,1,6.2,1.807,6.114,6.114,0,0,1,2.236,5.038,5.1,5.1,0,0,1-.939,3.088,6.563,6.563,0,0,1-2.754,2.085,4.992,4.992,0,0,1,2.953,2.022,6.4,6.4,0,0,1,.9,3.5v1.7a8.416,8.416,0,0,0,.262,2.029,2.8,2.8,0,0,0,.9,1.569v.334H79.176a2.627,2.627,0,0,1-.828-1.7,14.377,14.377,0,0,1-.19-2.261v-1.64a3.68,3.68,0,0,0-.948-2.7,3.566,3.566,0,0,0-2.666-.964Zm0-3.581H74.13a4.391,4.391,0,0,0,2.921-.828,3.054,3.054,0,0,0,.963-2.451,3.377,3.377,0,0,0-.963-2.532,3.913,3.913,0,0,0-2.841-.938H70.119Z" transform="translate(106 322)" fill="#00668c"/>
    <path id="Tracé_121" data-name="Tracé 121" d="M102.544,144.955H95.985v19.6H91.338v-19.6H84.812v-3.582h17.732Z" transform="translate(106 322)" fill="#00668c"/>
    <path id="Tracé_122" data-name="Tracé 122" d="M119.385,154.362h-9.6v6.606h11.223v3.582H105.138V141.373h15.839v3.582H109.786v5.826h9.6Z" transform="translate(106 322)" fill="#00668c"/>
    <path id="Tracé_123" data-name="Tracé 123" d="M150.711,164.55h-4.632l-9.36-15.838-.1.016V164.55h-4.648V141.373h4.648l9.359,15.823.1-.016V141.373h4.632Z" transform="translate(106 322)" fill="#00668c"/>
    <path id="Tracé_124" data-name="Tracé 124" d="M173.4,141.373V156.75a7.341,7.341,0,0,1-2.58,6.017,10.293,10.293,0,0,1-6.749,2.117,10.175,10.175,0,0,1-6.71-2.117,7.374,7.374,0,0,1-2.554-6.017V141.373h4.664v15.365a4.453,4.453,0,0,0,1.225,3.427,4.766,4.766,0,0,0,3.375,1.138,4.9,4.9,0,0,0,3.422-1.129,4.419,4.419,0,0,0,1.242-3.436V141.373Z" transform="translate(106 322)" fill="#00668c"/>
    <path id="Tracé_125" data-name="Tracé 125" d="M183.518,141.373l5.906,17.08h.1l5.954-17.08h6.08V164.55h-4.648v-6.908l.446-10.236-.1-.015-6.208,17.159h-3.12l-6.176-17.1-.1.016.445,10.172v6.908h-4.647V141.373Z" transform="translate(106 322)" fill="#00668c"/>
    <path id="Tracé_126" data-name="Tracé 126" d="M220.145,154.362h-9.6v6.606h11.222v3.581H205.9V141.374h15.838v3.581h-11.19v5.826h9.6Zm-5.985-18.879h4.918l.033.1-4.41,4.138h-3.708Z" transform="translate(106 322)" fill="#00668c"/>
    <path id="Tracé_127" data-name="Tracé 127" d="M229.267,155.285v9.265h-4.648V141.373h8.739a9.607,9.607,0,0,1,6.2,1.807,6.114,6.114,0,0,1,2.236,5.038,5.1,5.1,0,0,1-.939,3.088,6.563,6.563,0,0,1-2.754,2.085,4.992,4.992,0,0,1,2.953,2.022,6.4,6.4,0,0,1,.9,3.5v1.7a8.416,8.416,0,0,0,.262,2.029,2.8,2.8,0,0,0,.9,1.569v.334h-4.792a2.627,2.627,0,0,1-.828-1.7,14.377,14.377,0,0,1-.19-2.261v-1.64a3.68,3.68,0,0,0-.948-2.7,3.566,3.566,0,0,0-2.666-.964Zm0-3.581h4.011a4.391,4.391,0,0,0,2.921-.828,3.054,3.054,0,0,0,.963-2.451,3.377,3.377,0,0,0-.963-2.532,3.913,3.913,0,0,0-2.841-.938h-4.091Z" transform="translate(106 322)" fill="#00668c"/>
    <rect id="Rectangle_4" data-name="Rectangle 4" width="4.648" height="23.177" transform="translate(352.458 463.373)" fill="#00668c"/>
    <path id="Tracé_128" data-name="Tracé 128" d="M274.377,155.063a10.828,10.828,0,0,1-.684,3.9,9.147,9.147,0,0,1-1.957,3.116l3.836,3.742-3.04,2.473-4.171-4.043a11.5,11.5,0,0,1-1.783.468,10.654,10.654,0,0,1-1.91.167,9.2,9.2,0,0,1-6.957-2.785,9.772,9.772,0,0,1-2.673-7.051v-4.171a9.79,9.79,0,0,1,2.666-7.043,9.165,9.165,0,0,1,6.948-2.793,9.333,9.333,0,0,1,7.019,2.8,9.734,9.734,0,0,1,2.706,7.053Zm-4.647-4.207a7.02,7.02,0,0,0-1.354-4.448,4.46,4.46,0,0,0-3.724-1.74,4.339,4.339,0,0,0-3.677,1.73,7.21,7.21,0,0,0-1.306,4.458v4.211a7.227,7.227,0,0,0,1.322,4.5,4.357,4.357,0,0,0,3.677,1.739,4.435,4.435,0,0,0,3.725-1.739,7.17,7.17,0,0,0,1.337-4.5Z" transform="translate(106 322)" fill="#00668c"/>
    <path id="Tracé_129" data-name="Tracé 129" d="M296.886,141.373V156.75a7.344,7.344,0,0,1-2.579,6.017,10.293,10.293,0,0,1-6.749,2.117,10.171,10.171,0,0,1-6.71-2.117,7.375,7.375,0,0,1-2.555-6.017V141.373h4.664v15.365a4.45,4.45,0,0,0,1.226,3.427,4.766,4.766,0,0,0,3.375,1.138,4.9,4.9,0,0,0,3.422-1.129,4.419,4.419,0,0,0,1.242-3.436V141.373Z" transform="translate(106 322)" fill="#00668c"/>
    <path id="Tracé_130" data-name="Tracé 130" d="M315.191,154.362h-9.6v6.606h11.223v3.582h-15.87V141.373h15.838v3.582H305.592v5.826h9.6Z" transform="translate(106 322)" fill="#00668c"/>
    <path id="Tracé_131" data-name="Tracé 131" d="M5.332,194.4v9.265H.685V180.493H9.424a9.606,9.606,0,0,1,6.2,1.807,6.114,6.114,0,0,1,2.236,5.038,5.1,5.1,0,0,1-.939,3.088,6.563,6.563,0,0,1-2.754,2.085,4.992,4.992,0,0,1,2.953,2.022,6.4,6.4,0,0,1,.9,3.5v1.7a8.416,8.416,0,0,0,.262,2.029,2.8,2.8,0,0,0,.9,1.569v.334H14.389a2.627,2.627,0,0,1-.828-1.7,14.376,14.376,0,0,1-.19-2.261v-1.64a3.679,3.679,0,0,0-.947-2.7,3.57,3.57,0,0,0-2.667-.964Zm0-3.581H9.344a4.39,4.39,0,0,0,2.92-.828,3.054,3.054,0,0,0,.963-2.451,3.377,3.377,0,0,0-.963-2.532,3.912,3.912,0,0,0-2.84-.938H5.332Z" transform="translate(106 322)" fill="#4e8cae"/>
    <path id="Tracé_132" data-name="Tracé 132" d="M36.484,193.482h-9.6v6.606H38.108v3.582H22.237V180.493H38.076v3.582H26.885V189.9h9.6Z" transform="translate(106 322)" fill="#4e8cae"/>
    <path id="Tracé_133" data-name="Tracé 133" d="M53.468,197.621a2.689,2.689,0,0,0-.947-2.148,9.581,9.581,0,0,0-3.319-1.529,18.873,18.873,0,0,1-6.255-2.834,5.367,5.367,0,0,1-2.118-4.488,5.559,5.559,0,0,1,2.428-4.656,10.11,10.11,0,0,1,6.2-1.807,9.323,9.323,0,0,1,6.224,2.029,6.08,6.08,0,0,1,2.324,5.007l-.032.095H53.468a3.386,3.386,0,0,0-1.074-2.6,4.276,4.276,0,0,0-3.017-.994,4.461,4.461,0,0,0-2.881.827,2.61,2.61,0,0,0-1.019,2.118,2.271,2.271,0,0,0,1.091,1.933,15.05,15.05,0,0,0,3.764,1.6,14.605,14.605,0,0,1,5.81,2.817,5.852,5.852,0,0,1,1.974,4.6,5.509,5.509,0,0,1-2.348,4.7,10.249,10.249,0,0,1-6.2,1.719,11.325,11.325,0,0,1-6.606-1.949,6.091,6.091,0,0,1-2.738-5.468l.032-.1h4.521a3.564,3.564,0,0,0,1.265,3.032,5.708,5.708,0,0,0,3.526.963,4.639,4.639,0,0,0,2.9-.78,2.506,2.506,0,0,0,1-2.085" transform="translate(106 322)" fill="#4e8cae"/>
    <path id="Tracé_134" data-name="Tracé 134" d="M66.282,195.266v8.4H61.634V180.494h9.232a9.126,9.126,0,0,1,6.288,2.038,7.405,7.405,0,0,1,0,10.713,9.178,9.178,0,0,1-6.288,2.021Zm0-3.582h4.584a3.867,3.867,0,0,0,2.945-1.059,3.76,3.76,0,0,0,1-2.7,3.944,3.944,0,0,0-1-2.762,3.8,3.8,0,0,0-2.953-1.089H66.282Z" transform="translate(106 322)" fill="#4e8cae"/>
    <path id="Tracé_135" data-name="Tracé 135" d="M101.509,194.167a9.722,9.722,0,0,1-2.7,7.052A9.322,9.322,0,0,1,91.8,204a9.2,9.2,0,0,1-6.956-2.785,9.771,9.771,0,0,1-2.674-7.052V190a9.79,9.79,0,0,1,2.666-7.043,9.162,9.162,0,0,1,6.948-2.794,9.332,9.332,0,0,1,7.02,2.794A9.713,9.713,0,0,1,101.509,190Zm-4.648-4.19a7.027,7.027,0,0,0-1.353-4.449,4.461,4.461,0,0,0-3.725-1.739,4.339,4.339,0,0,0-3.677,1.73,7.206,7.206,0,0,0-1.305,4.458v4.21a7.229,7.229,0,0,0,1.321,4.5,4.356,4.356,0,0,0,3.677,1.738,4.433,4.433,0,0,0,3.725-1.738,7.173,7.173,0,0,0,1.337-4.5Z" transform="translate(106 322)" fill="#4e8cae"/>
    <path id="Tracé_136" data-name="Tracé 136" d="M123.873,203.67h-4.632l-9.36-15.838-.1.016V203.67h-4.648V180.493h4.648l9.359,15.823.1-.016V180.493h4.632Z" transform="translate(106 322)" fill="#4e8cae"/>
    <path id="Tracé_137" data-name="Tracé 137" d="M140.73,197.621a2.689,2.689,0,0,0-.947-2.148,9.582,9.582,0,0,0-3.319-1.529,18.873,18.873,0,0,1-6.255-2.834,5.367,5.367,0,0,1-2.118-4.488,5.559,5.559,0,0,1,2.428-4.656,10.11,10.11,0,0,1,6.2-1.807,9.323,9.323,0,0,1,6.224,2.029,6.08,6.08,0,0,1,2.324,5.007l-.032.095H140.73a3.386,3.386,0,0,0-1.074-2.6,4.276,4.276,0,0,0-3.017-.994,4.461,4.461,0,0,0-2.881.827,2.61,2.61,0,0,0-1.019,2.118,2.271,2.271,0,0,0,1.091,1.933,15.05,15.05,0,0,0,3.764,1.6,14.605,14.605,0,0,1,5.81,2.817,5.852,5.852,0,0,1,1.974,4.6,5.509,5.509,0,0,1-2.348,4.7,10.249,10.249,0,0,1-6.2,1.719,11.325,11.325,0,0,1-6.606-1.949,6.091,6.091,0,0,1-2.738-5.468l.032-.1h4.521a3.564,3.564,0,0,0,1.265,3.032,5.708,5.708,0,0,0,3.526.963,4.639,4.639,0,0,0,2.9-.78,2.506,2.506,0,0,0,1-2.085" transform="translate(106 322)" fill="#4e8cae"/>
    <path id="Tracé_138" data-name="Tracé 138" d="M161.329,198.672H153.2l-1.576,5h-4.7l7.975-23.177h4.759L167.6,203.67h-4.7Zm-6.988-3.646h5.842l-2.865-9.1h-.1Z" transform="translate(106 322)" fill="#4e8cae"/>
    <path id="Tracé_139" data-name="Tracé 139" d="M169.765,203.67V180.493H177.6a11.062,11.062,0,0,1,6.382,1.592,5.413,5.413,0,0,1,2.293,4.76,5.025,5.025,0,0,1-.852,2.873,5.146,5.146,0,0,1-2.475,1.9,4.921,4.921,0,0,1,3.128,1.91,5.707,5.707,0,0,1,1.043,3.391,6,6,0,0,1-2.2,5.038,9.928,9.928,0,0,1-6.224,1.711Zm4.648-13.467h3.343a4.66,4.66,0,0,0,2.865-.763,2.632,2.632,0,0,0,1-2.229,2.782,2.782,0,0,0-1.011-2.372,4.967,4.967,0,0,0-3.016-.764h-3.184Zm0,3.216v6.67H178.7a4.321,4.321,0,0,0,2.817-.8,2.9,2.9,0,0,0,.971-2.374,3.7,3.7,0,0,0-.827-2.6,3.4,3.4,0,0,0-2.611-.9Z" transform="translate(106 322)" fill="#4e8cae"/>
    <path id="Tracé_140" data-name="Tracé 140" d="M195.33,200.089h10.315v3.581H190.682V180.493h4.648Z" transform="translate(106 322)" fill="#4e8cae"/>
    <path id="Tracé_141" data-name="Tracé 141" d="M222.565,193.482h-9.6v6.606h11.223v3.582H208.318V180.493h15.839v3.582H212.966V189.9h9.6Z" transform="translate(106 322)" fill="#4e8cae"/>
    <rect id="Rectangle_6" data-name="Rectangle 6" width="3.5" height="103.8" transform="translate(107.412 329.9)" fill="#020203"/>
    <path id="Tracé_142" data-name="Tracé 142" d="M21.212,7.9V111.8h3.8v-99l.2.3,69.7,98.7h5V7.9h-3.8V107l-.2-.2L26.212,7.9Z" transform="translate(106 322)" fill="#020203"/>
    <path id="Tracé_143" data-name="Tracé 143" d="M152.412,64.8h.2a31.533,31.533,0,0,0,18-8.4,27.214,27.214,0,0,0,8-19.9c0-18-11.8-28.7-31.7-28.7h-31V111.6h3.8V65.1h28.4v.1l27.9,46.5h4.2Zm-5.3-3.5h-27.5V11.6h26.6c18.1,0,28.5,9.1,28.5,24.9,0,7.5-2.8,13.9-8.1,18.3-5,4.2-11.9,6.5-19.5,6.5" transform="translate(106 322)" fill="#020203"/>
    <path id="Tracé_144" data-name="Tracé 144" d="M292.212,62.8a2.483,2.483,0,0,1-1.5-3.2,23,23,0,0,0-43.3-15.5,2.5,2.5,0,1,1-4.7-1.7,28.057,28.057,0,1,1,52.8,19,2.675,2.675,0,0,1-3.3,1.4" transform="translate(106 322)" fill="#0486ac"/>
    <path id="Tracé_145" data-name="Tracé 145" d="M236.512,69.2a2.539,2.539,0,0,1-1.4-1.3,37.688,37.688,0,1,1,68.2-32.1,2.55,2.55,0,0,1-4.6,2.2,32.677,32.677,0,0,0-59.1,27.9,2.52,2.52,0,0,1-1.2,3.4,4.147,4.147,0,0,1-1.9-.1" transform="translate(106 322)" fill="#0b7da0"/>
    <path id="Tracé_146" data-name="Tracé 146" d="M252.012,95.5a46.119,46.119,0,0,1,31.2-86.8,2.5,2.5,0,1,1-1.7,4.7,41.09,41.09,0,0,0-27.9,77.3,2.532,2.532,0,0,1-1.6,4.8" transform="translate(106 322)" fill="#097999"/>
    <path id="Tracé_147" data-name="Tracé 147" d="M247.912,103.3a54.628,54.628,0,0,1-4.8-100.9,2.52,2.52,0,0,1,3.4,1.2,2.52,2.52,0,0,1-1.2,3.4,49.611,49.611,0,1,0,42.2,89.8,2.55,2.55,0,0,1,2.2,4.6,55.279,55.279,0,0,1-41.8,1.9" transform="translate(106 322)" fill="#056e92"/>
    <path id="Tracé_148" data-name="Tracé 148" d="M244.712,111.6a63.827,63.827,0,0,1-38.4-81.6,2.5,2.5,0,1,1,4.7,1.7,58.708,58.708,0,0,0,110.5,39.7,2.5,2.5,0,0,1,4.7,1.7,63.687,63.687,0,0,1-81.5,38.5" transform="translate(106 322)" fill="#07678d"/>
    <path id="Tracé_149" data-name="Tracé 149" d="M315.312,18.3h.8v1.4a2.463,2.463,0,0,1,2.3-1.5c1.4,0,1.9.8,1.9,2.3v3.8h-.8V20.7c0-.9-.1-1.8-1.2-1.8a2.226,2.226,0,0,0-2.1,1.7,1.949,1.949,0,0,0-.1.8v2.8h-.8Z" transform="translate(106 322)" fill="#097999"/>
    <path id="Tracé_150" data-name="Tracé 150" d="M321.912,23a2.337,2.337,0,0,0,1.7.7c.6,0,1.1-.3,1.1-.9,0-1.3-3-1-3-2.9,0-1.1.9-1.6,1.9-1.6a2.227,2.227,0,0,1,1.7.6l-.4.6a2.07,2.07,0,0,0-1.4-.5c-.6,0-1.1.3-1.1.9,0,1.3,3,1,3,2.9a1.74,1.74,0,0,1-1.9,1.7,2.738,2.738,0,0,1-2.1-.9Z" transform="translate(106 322)" fill="#097999"/>
    <path id="Tracé_151" data-name="Tracé 151" d="M327.212,19.1h-.7v-.7h.8V16.7h.8v1.7h1.4v.7h-1.4V22c0,1.4.8,1.6,1.3,1.6h.3v.7h-.3c-.7,0-2-.2-2-2.2Z" transform="translate(106 322)" fill="#097999"/>
    <path id="Tracé_152" data-name="Tracé 152" d="M330.712,24.2h.8V18.3h-.8Zm0-7.2h.8V16h-.8Z" transform="translate(106 322)" fill="#097999"/>
    <path id="Tracé_153" data-name="Tracé 153" d="M333.512,19.1h-.7v-.7h.8V16.7h.8v1.7h1.4v.7h-1.4V22c0,1.4.8,1.6,1.3,1.6h.3v.7h-.3c-.7,0-2-.2-2-2.2Z" transform="translate(106 322)" fill="#097999"/>
    <path id="Tracé_154" data-name="Tracé 154" d="M337.012,18.3h.8v3.6c0,.9.1,1.8,1.2,1.8a2.282,2.282,0,0,0,2.1-2.5V18.4h.8v5.9h-.7V22.9a2.4,2.4,0,0,1-2.2,1.5c-1.3,0-1.9-.8-1.9-2.3V18.3Z" transform="translate(106 322)" fill="#097999"/>
    <path id="Tracé_155" data-name="Tracé 155" d="M343.912,19.1h-.7v-.7h.8V16.7h.8v1.7h1.4v.7h-1.4V22c0,1.4.8,1.6,1.3,1.6h.3v.7h-.3c-.7,0-2-.2-2-2.2Z" transform="translate(106 322)" fill="#097999"/>
    <path id="Tracé_156" data-name="Tracé 156" d="M352.712,18.2a2.08,2.08,0,0,1,1.9,1.1V16h.8v8.3h-.7v-1a2.147,2.147,0,0,1-2,1.2c-1.5,0-2.5-1.3-2.5-3.1,0-2,1-3.2,2.5-3.2m0,5.5c.9,0,1.8-.7,1.8-2.4,0-1.2-.6-2.4-1.8-2.4-1,0-1.8.9-1.8,2.4s.8,2.4,1.8,2.4" transform="translate(106 322)" fill="#097999"/>
    <path id="Tracé_157" data-name="Tracé 157" d="M357.112,18.3h.8v3.6c0,.9.1,1.8,1.2,1.8a2.282,2.282,0,0,0,2.1-2.5V18.4h.8v5.9h-.7V22.9a2.4,2.4,0,0,1-2.2,1.5c-1.3,0-1.9-.8-1.9-2.3V18.3Z" transform="translate(106 322)" fill="#097999"/>
    <path id="Tracé_158" data-name="Tracé 158" d="M320.612,32.5h.8v3.6c0,.9.1,1.8,1.2,1.8a2.282,2.282,0,0,0,2.1-2.5V32.6h.8v5.9h-.7V37.1a2.4,2.4,0,0,1-2.2,1.5c-1.3,0-1.9-.8-1.9-2.3V32.5Z" transform="translate(106 322)" fill="#097999"/>
    <path id="Tracé_159" data-name="Tracé 159" d="M327.312,32.5h.8v1.4a2.408,2.408,0,0,1,2.1-1.5,1.669,1.669,0,0,1,1.8,1.5,2.3,2.3,0,0,1,2.1-1.5c1.4,0,1.9.8,1.9,2.3v3.8h-.8V34.9c0-1-.2-1.8-1.2-1.8a2.012,2.012,0,0,0-1.8,1.7,2.483,2.483,0,0,0-.1.9v2.8h-.8V34.9c0-.9-.1-1.8-1.2-1.8a2.221,2.221,0,0,0-1.9,1.7,1.949,1.949,0,0,0-.1.8v2.8h-.8Z" transform="translate(106 322)" fill="#097999"/>
    <path id="Tracé_160" data-name="Tracé 160" d="M340.012,32.3a2.445,2.445,0,0,1,2.4,2.7v.4h-4.3a2.126,2.126,0,0,0,2.2,2.3,2.632,2.632,0,0,0,1.7-.7l.4.6a3.159,3.159,0,0,1-2.1.8,2.971,2.971,0,0,1-3-3.1,2.714,2.714,0,0,1,2.7-3m1.6,2.5a1.635,1.635,0,0,0-1.6-1.8,2.021,2.021,0,0,0-2,1.8Zm-1.2-4.7h.9l-1,1.4h-.7Z" transform="translate(106 322)" fill="#097999"/>
    <path id="Tracé_161" data-name="Tracé 161" d="M343.812,32.5h.8V34a2,2,0,0,1,1.8-1.6h.3v.8h-.3a1.8,1.8,0,0,0-1.6,1.5,5.019,5.019,0,0,0-.2,1.2v2.5h-.8Z" transform="translate(106 322)" fill="#097999"/>
    <path id="Tracé_162" data-name="Tracé 162" d="M347.912,38.4h.8V32.5h-.8Zm-.1-7.3h.8v-1h-.8Z" transform="translate(106 322)" fill="#097999"/>
    <path id="Tracé_163" data-name="Tracé 163" d="M352.612,32.3a2.08,2.08,0,0,1,1.9,1.1v-1h.7v8.3h-.7V37.3a2.088,2.088,0,0,1-1.9,1.2c-1.5,0-2.5-1.3-2.5-3.1s1.1-3.1,2.5-3.1m.1,5.5c.9,0,1.8-.7,1.8-2.4,0-1.2-.6-2.4-1.8-2.4-1,0-1.8.9-1.8,2.4s.7,2.4,1.8,2.4" transform="translate(106 322)" fill="#097999"/>
    <path id="Tracé_164" data-name="Tracé 164" d="M357.012,32.5h.8v3.6c0,.9.1,1.8,1.2,1.8a2.282,2.282,0,0,0,2.1-2.5V32.6h.8v5.9h-.7V37.1a2.4,2.4,0,0,1-2.2,1.5c-1.3,0-1.9-.8-1.9-2.3V32.5Z" transform="translate(106 322)" fill="#097999"/>
    <path id="Tracé_165" data-name="Tracé 165" d="M366.112,32.3a2.445,2.445,0,0,1,2.4,2.7v.4h-4.3a2.126,2.126,0,0,0,2.2,2.3,2.632,2.632,0,0,0,1.7-.7l.4.6a3.159,3.159,0,0,1-2.1.8,2.971,2.971,0,0,1-3-3.1,2.714,2.714,0,0,1,2.7-3m1.6,2.5a1.635,1.635,0,0,0-1.6-1.8,2.021,2.021,0,0,0-2,1.8Z" transform="translate(106 322)" fill="#097999"/>
    <rect id="Rectangle_10" data-name="Rectangle 10" width="1" height="8.5" transform="translate(418.313 337.9)" fill="#07678d"/>
    <path id="Tracé_166" data-name="Tracé 166" d="M317.712,30v6.9a3.509,3.509,0,0,0-.5-.8l-4-6h-.9v8.5h1V31.7a3.507,3.507,0,0,0,.5.8l4,6h.9V30Z" transform="translate(106 322)" fill="#07678d"/>
    <path id="Tracé_167" data-name="Tracé 167" d="M316.112,48.9a2.33,2.33,0,0,0,1.5-2.3,2.369,2.369,0,0,0-1.2-2.2,4.391,4.391,0,0,0-1.5-.2h-2.4v8.5h1V49.2h1.8l1.8,3.4v.1h1.1l-1.8-3.5q-.3-.15-.3-.3m.5-2.2a1.446,1.446,0,0,1-1.5,1.6h-1.8V45.1h1.5a2.332,2.332,0,0,1,1.1.2,1.494,1.494,0,0,1,.7,1.4" transform="translate(106 322)" fill="#07678d"/>
    <path id="Tracé_168" data-name="Tracé 168" d="M321.712,46.5a2.445,2.445,0,0,1,2.4,2.7v.4h-4.3a2.126,2.126,0,0,0,2.2,2.3,2.632,2.632,0,0,0,1.7-.7l.4.6a3.159,3.159,0,0,1-2.1.8,2.971,2.971,0,0,1-3-3.1,2.661,2.661,0,0,1,2.7-3m1.6,2.5a1.635,1.635,0,0,0-1.6-1.8,2.021,2.021,0,0,0-2,1.8Z" transform="translate(106 322)" fill="#097999"/>
    <path id="Tracé_169" data-name="Tracé 169" d="M325.512,51.3a2.337,2.337,0,0,0,1.7.7c.6,0,1.1-.3,1.1-.9,0-1.3-3-1-3-2.9,0-1.1.9-1.6,1.9-1.6a2.227,2.227,0,0,1,1.7.6l-.4.6a2.07,2.07,0,0,0-1.4-.5c-.6,0-1.1.3-1.1.9,0,1.3,3,1,3,2.9a1.74,1.74,0,0,1-1.9,1.7,2.738,2.738,0,0,1-2.1-.9Z" transform="translate(106 322)" fill="#097999"/>
    <path id="Tracé_170" data-name="Tracé 170" d="M330.512,46.6h.7v1.1a2.147,2.147,0,0,1,2-1.2c1.5,0,2.5,1.3,2.5,3.1,0,1.9-1.1,3.1-2.5,3.1a2.08,2.08,0,0,1-1.9-1.1v3.3h-.8Zm2.5,5.4c1,0,1.8-.9,1.8-2.4,0-1.4-.7-2.4-1.8-2.4-.9,0-1.8.7-1.8,2.4,0,1.2.7,2.4,1.8,2.4" transform="translate(106 322)" fill="#097999"/>
    <path id="Tracé_171" data-name="Tracé 171" d="M339.712,46.5a3.1,3.1,0,1,1-3,3.1,2.971,2.971,0,0,1,3-3.1m0,5.5a2.27,2.27,0,0,0,2.2-2.4,2.2,2.2,0,1,0-4.4,0,2.333,2.333,0,0,0,2.2,2.4" transform="translate(106 322)" fill="#097999"/>
    <path id="Tracé_172" data-name="Tracé 172" d="M344.112,46.6h.8V48a2.463,2.463,0,0,1,2.3-1.5c1.4,0,1.9.8,1.9,2.3v3.8h-.8V49c0-.9-.1-1.8-1.2-1.8a2.226,2.226,0,0,0-2.1,1.7,2.2,2.2,0,0,0-.1.8v2.8h-.8Z" transform="translate(106 322)" fill="#097999"/>
    <path id="Tracé_173" data-name="Tracé 173" d="M350.812,51.3a2.337,2.337,0,0,0,1.7.7c.6,0,1.1-.3,1.1-.9,0-1.3-3-1-3-2.9,0-1.1.9-1.6,1.9-1.6a2.227,2.227,0,0,1,1.7.6l-.4.6a2.07,2.07,0,0,0-1.4-.5c-.6,0-1.1.3-1.1.9,0,1.3,3,1,3,2.9a1.74,1.74,0,0,1-1.9,1.7,2.738,2.738,0,0,1-2.1-.9Z" transform="translate(106 322)" fill="#097999"/>
    <path id="Tracé_174" data-name="Tracé 174" d="M358.812,48.9h.3v-.2c0-1.1-.6-1.5-1.4-1.5a2.736,2.736,0,0,0-1.6.6l-.4-.6a2.944,2.944,0,0,1,2-.7c1.4,0,2.1.8,2.1,2.3v3.8h-.7V51.4a2.111,2.111,0,0,1-1.9,1.3,1.809,1.809,0,0,1-1.9-1.8c0-2,2.5-2,3.5-2m-1.4,3.1c1.1,0,1.7-1.2,1.7-2.2v-.3h-.3c-.9,0-2.7,0-2.7,1.3a1.135,1.135,0,0,0,1.3,1.2" transform="translate(106 322)" fill="#097999"/>
    <path id="Tracé_175" data-name="Tracé 175" d="M361.712,44.3h.8v3.4a2.08,2.08,0,0,1,1.9-1.1c1.5,0,2.5,1.3,2.5,3.1,0,1.9-1.1,3.1-2.6,3.1a2.267,2.267,0,0,1-1.9-1.2v1h-.7Zm2.5,7.7c1,0,1.8-.9,1.8-2.4,0-1.4-.7-2.4-1.8-2.4-.9,0-1.8.7-1.8,2.4,0,1.2.6,2.4,1.8,2.4" transform="translate(106 322)" fill="#097999"/>
    <path id="Tracé_176" data-name="Tracé 176" d="M368.212,44.3h.8V51c0,.8.3.9.6.9h.2v.7h-.3a1.221,1.221,0,0,1-1.3-1.4Z" transform="translate(106 322)" fill="#097999"/>
    <path id="Tracé_177" data-name="Tracé 177" d="M373.512,46.5a2.445,2.445,0,0,1,2.4,2.7v.4h-4.4a2.126,2.126,0,0,0,2.2,2.3,2.632,2.632,0,0,0,1.7-.7l.4.6a3.159,3.159,0,0,1-2.1.8,2.971,2.971,0,0,1-3-3.1,2.788,2.788,0,0,1,2.8-3m1.6,2.5a1.635,1.635,0,0,0-1.6-1.8,2.021,2.021,0,0,0-2,1.8Z" transform="translate(106 322)" fill="#097999"/>
  </g>
</svg>
